# xmcd
#
# Track frame offsets:
#	150
#	25598
#	42516
#	73430
#	99964
#	115346
#	128000
#	159720
#	189923
#	210813
#	226024
#	250147
#	273079
#	290922
#	309055
#	328719
#
# Disc length: 4790 seconds
# Revision: 0
# Processed by: cddbd v1.5.2PL0 Copyright (c) Steve Scherf et al.
# Submitted via: dBpowerAMP V12.0
#
DISCID=d512b410
DTITLE=Tater - Live At Campbells
DYEAR=2002
DGENRE=Hi-Test Hillbilly
TTITLE0=20Lb. Test Of Love
TTITLE1=Shady Grove
TTITLE2=City Song
TTITLE3=Ocracoke Song
TTITLE4=Friend Of The Devil
TTITLE5=The Wicked Messenger
TTITLE6=Surfin' For Souls
TTITLE7=Wish You Were Here
TTITLE8=Little Maggie
TTITLE9=New River Train
TTITLE10=The Last Bandito
TTITLE11=Over The Falls
TTITLE12=Change
TTITLE13=South Mountain Rag
TTITLE14=Knife Bridge Blues
TTITLE15=New Speedway Boogie
EXTD=
EXTT0=
EXTT1=
EXTT2=
EXTT3=
EXTT4=
EXTT5=
EXTT6=
EXTT7=
EXTT8=
EXTT9=
EXTT10=
EXTT11=
EXTT12=
EXTT13=
EXTT14=
EXTT15=
PLAYORDER=
